<?xml version="1.0" encoding="utf-8"?>
<!-- Generator: Adobe Illustrator 18.0.0, SVG Export Plug-In . SVG Version: 6.00 Build 0)  -->
<!DOCTYPE svg PUBLIC "-//W3C//DTD SVG 1.1//EN" "http://www.w3.org/Graphics/SVG/1.1/DTD/svg11.dtd">
<svg version="1.1" id="Layer_1" xmlns="http://www.w3.org/2000/svg" xmlns:xlink="http://www.w3.org/1999/xlink" x="0px" y="0px"
	 viewBox="0 0 38.8 37.5" enable-background="new 0 0 38.8 37.5" xml:space="preserve">
<g>
	<path fill="#AAD3C7" d="M19.4,20.9c0.3,0,0.5-0.2,0.5-0.5v-3.2l4.3-3.3c0.2-0.2,0.2-0.5,0-0.7c-0.2-0.2-0.5-0.2-0.7,0l-4.1,3
		l-4.1-3c-0.2-0.2-0.5-0.2-0.7,0c-0.2,0.2-0.2,0.5,0,0.7l4.3,3.2v3.2C18.9,20.7,19.1,20.9,19.4,20.9z"/>
	<path fill="#616E7D" d="M15.6,27.9c0,0.7-0.4,1.4-1,1.6c0,0,0,0.1,0,0.1h4.5c0.1,0,0.1,0,0.2,0c2.2,0,3.9-1.8,3.8-4
		c-0.1-1.9-1.7-3.4-3.5-3.5c-2.2-0.1-4,1.6-4,3.8l0,0.1h0V27.9z"/>
	<path fill="#616E7D" d="M17.2,29.9c-2,0-3.6,1.6-3.6,3.6v1.7h11.5v-1.7c0-2-1.6-3.6-3.6-3.6H17.2z M20.3,31.5l-0.9,2.8l0,0
		l-0.9-2.8L20.3,31.5z M20.3,32.2l0.7,0.7l-1.7,1.8l-1.7-1.8l0.7-0.7c0,0-1.1-1-1.1-1.1C17.2,31,18,30.5,18,30.5l1.4,4.2l1.4-4.2
		c0,0,0.8,0.5,0.7,0.7C21.4,31.2,20.3,32.2,20.3,32.2z"/>
	<polygon fill="#AAD3C7" points="19.4,34.3 20.3,31.5 18.4,31.5 19.4,34.3 	"/>
	<path fill="#FFFFFF" d="M21.5,31.1c0.1-0.2-0.7-0.7-0.7-0.7l-1.4,4.2l1.7-1.8l-0.7-0.7C20.3,32.2,21.4,31.2,21.5,31.1z"/>
	<path fill="#FFFFFF" d="M19.4,34.7L18,30.5c0,0-0.8,0.5-0.7,0.7c0,0.1,1.1,1.1,1.1,1.1l-0.7,0.7L19.4,34.7z"/>
	<path fill="#616E7D" d="M29.3,10.8c-2,0-3.6,1.6-3.6,3.6v1.7h11.5v-1.7c0-2-1.6-3.6-3.6-3.6H29.3z M32.9,15.5h-0.5l-0.4-2.9h0
		l0.4-0.8h-1.7l0.4,0.8h0l-0.4,2.9h-0.5l-0.8-4.3c0.1,0,0.2,0,0.2,0h4c0.1,0,0.2,0,0.2,0L32.9,15.5z"/>
	<path fill="#FFFFFF" d="M31.9,12.6l0.4,2.9h0.5l0.8-4.3c-0.1,0-0.2,0-0.2,0h-4c-0.1,0-0.2,0-0.2,0l0.8,4.3h0.5l0.4-2.9h0l-0.4-0.8
		h1.7L31.9,12.6L31.9,12.6z"/>
	<circle fill="#616E7D" cx="31.5" cy="6.6" r="3.8"/>
	<path fill="#616E7D" d="M5,10.8c-2,0-3.6,1.6-3.6,3.6v1.7h11.5v-1.7c0-2-1.6-3.6-3.6-3.6H5z M8.6,15.5H8.1H6.3H5.8l-0.8-4.3
		c0.1,0,0.2,0,0.2,0h4c0.1,0,0.2,0,0.2,0L8.6,15.5z"/>
	<path fill="#FFFFFF" d="M7.6,12.6l0.4,2.9h0.5l0.8-4.3c-0.1,0-0.2,0-0.2,0h-4c-0.1,0-0.2,0-0.2,0l0.8,4.3h0.5l0.4-2.9h0l-0.4-0.8H8
		L7.6,12.6L7.6,12.6z"/>
	<polygon fill="#AAD3C7" points="6.3,15.5 8.1,15.5 7.6,12.6 7.6,12.6 8,11.8 6.3,11.8 6.7,12.6 6.7,12.6 	"/>
	<circle fill="#616E7D" cx="7.2" cy="6.6" r="3.8"/>
</g>
</svg>
